<?xml version="1.0" standalone="no"?>
<!DOCTYPE svg PUBLIC "-//W3C//DTD SVG 1.1//EN" "http://www.w3.org/Graphics/SVG/1.1/DTD/svg11.dtd">
<svg xmlns="http://www.w3.org/2000/svg">
<metadata>Generated by Fontastic.me</metadata>
<defs>
<font id="primesport" horiz-adv-x="512">
<font-face font-family="primesport" units-per-em="512" ascent="480" descent="-32"/>
<missing-glyph horiz-adv-x="512" />

<glyph unicode="&#97;" d="M17 286l204 0c3 0 6 2 8 3 1 2 3 5 3 8 0 3-3 75-56 122 5 9 8 18 8 28 0 36-29 65-65 65-36 0-66-29-66-65 0-10 3-21 7-30-13-16-55-69-54-122 0-4 5-9 11-9z m100 205c25 0 46-20 46-45 0-26-20-45-46-45-24 0-45 19-45 45 0 25 20 45 45 45z m-45-90c12-12 27-19 45-19 19 0 35 8 47 20 33-32 44-75 47-95l-184 0c3 36 32 77 45 94z m378-268c5 9 8 18 8 28 0 36-29 65-65 65-36 0-65-29-65-65 0-10 3-19 8-28-14-17-56-70-54-122 0-6 4-9 10-9l205 0c3 0 6 1 7 3 2 1 3 4 3 7-1 2-4 74-57 121z m-58 73c24 0 45-19 45-45 0-24-20-45-45-45-25 0-46 20-46 45 2 24 21 45 46 45z m-91-185c3 38 32 77 45 93 12-12 27-18 46-18 18 0 34 8 46 20 33-32 44-75 47-95z m-56 60c-6 0-131 9-150 139l25-24c5-5 11-5 16 0 4 4 4 10 0 15l-49 51c-3 3-6 3-9 3-3 0-6-3-7-6l-32-63c-3-5 0-11 5-14 1-1 3-1 4-1 3 0 8 1 9 6l18 34c20-150 169-159 170-159 6 0 11 4 11 9 0 6-5 10-11 10z m189 255l-18-35c-18 151-168 160-169 160-5 0-11-5-11-9 0-6 5-11 9-11 6 0 131-9 151-138l-24 25c-5 5-11 5-15 0-5-4-5-10 0-15l48-51c2-1 5-3 8-3 0 0 1 0 1 0 3 0 6 3 8 6l31 62c3 4 0 10-4 13-6 3-12 2-15-4z"/>
<glyph unicode="&#98;" d="M437 458l-53 0 0 45c2 4-3 9-8 9-4 0-9-5-9-9l0-45-210 0 0 45c0 4-5 9-9 9-5 0-9-5-9-9l0-45-58 0c-30 0-52-23-52-51l0-353c0-28 24-52 52-52l356 0c28 0 52 24 52 52l0 353c0 28-24 51-52 51z m-356-17l356 0c19 0 36-16 36-36l0-51-428 0 0 53c0 19 17 34 36 34z m286-104l0-95-93 0 0 95z m-109-95l-101 0 0 95 101 0z m-119 0l-94 0 0 95 94 0z m0-16l0-90-94 0 0 90z m18 0l101 0 0-90-101 0z m101-107l0-101-101 0 0 101z m16 0l93 0 0-101-93 0z m0 17l0 90 93 0 0-90z m112 90l87 0 0-90-87 0z m0 16l0 95 87 0 0-95z m-341-189l0 64 94 0 0-100-58 0c-19 1-36 16-36 36z m392-35l-53 0 0 101 87 0 0-65c2-21-15-36-34-36z"/>
<glyph unicode="&#99;" d="M512 81l0 276c0 21-17 38-38 38l-123 0c0 0 1 1 1 1l0 24c0 18-16 33-37 33l-115 0c-21 0-37-15-37-33l0-24c0 0 0-1 1-1l-126 0c-21 0-38-17-38-38l0-274c0-21 17-38 38-38l436 0c21-1 38 17 38 36z m-333 315l0 24c0 8 9 15 20 15l114 0c11 0 20-6 20-15l0-24c0 0 0-1 1-1l-156 0c1 0 1 1 1 1z m-141-20l436 0c11 0 20-9 20-19l0-109c-9-4-90-46-196-51l0 18c0 11-7 18-18 18l-48 0c-11 0-18-7-18-18l0-19c-104 4-185 46-196 51l0 108c0 12 9 21 20 21z m242-161l0-46-47 0 0 46z m-262-134l0 145c27-14 101-45 196-50l0-10c0-11 7-18 18-18l48 0c11 0 18 7 18 18l0 10c95 5 169 36 196 50l0-145c0-10-9-19-20-19l-436 0c-11 0-20 9-20 19z"/>
<glyph unicode="&#100;" d="M248 47c0-19-15-35-34-35-19 0-35 16-35 35 0 19 16 34 35 34 19 0 34-15 34-34z m163 0c0-19-15-35-35-35-19 0-34 16-34 35 0 19 15 34 34 34 20 0 35-15 35-34z m-358 384l78-216 2 0 45-99 247 0 0 47-219 0-24 54 256 1 74 213-411 0-20 55-81 0 0-46 48 0z m394-47l-42-122-242-1-46 123z"/>
<glyph unicode="&#101;" d="M54 0l202 202 202-202 54 54-202 202 202 202-54 54-202-202-202 202-54-54 202-202-202-202z"/>
<glyph unicode="&#102;" d="M2 283l510 0 0-60-510 0z"/>
<glyph unicode="&#103;" d="M247 95l105 0 56-66c2-2 5-3 6-3 2 0 2 0 3 0 3 1 6 4 6 7l6 62 33 0c27 0 50 30 50 66l0 154c0 36-30 66-66 66l-23 0 2 0 0 53c0 33-30 60-67 60 0 0 0 0-1 0l-292-3c-18 0-35-8-47-20-12-13-18-30-18-48l0-175c0-37 21-60 45-60l29-1 0-62c0-3 1-6 6-8 1 0 1 0 3 0 3 0 4 2 6 3l62 71 30 0 0-27c0-39 30-69 66-69z m248 220l0-154c0-27-15-50-31-50l-39 0c-5 0-9-3-9-7l-6-50-46 54c-1 2-3 3-6 3l-110 0c-27 0-49 23-49 50l0 154c0 27 22 49 49 49l199 0c26 0 48-22 48-49z m-347-109c-3 0-5-1-6-3l-52-57 0 47c0 4-4 9-9 9 0 0 0 0-1 0l-35 3c-12 0-27 15-28 43l0 175c0 14 4 26 13 35 9 9 21 15 35 15l290 4c27 0 49-19 50-43l0-53-158 0c-36 0-66-30-66-66l0-109z m94 86c0-4 5-9 9-9l193 0c5 0 9 5 9 9 0 5-4 9-9 9l-194 0c-5-1-8-4-8-9z m201-44l-193 0c-5 0-9-4-9-9 0-4 4-9 9-9l193 0c4 0 9 5 9 9 0 5-5 9-9 9z m0-52l-193 0c-5 0-9-5-9-9 0-5 4-9 9-9l193 0c4 0 9 4 9 9 0 6-5 9-9 9z"/>
<glyph unicode="&#104;" d="M262 510c-3 2-4 2-8 2l-228-96c-3-2-5-3-5-5 0 0 0-1 0-1 0 0 0 0 0-2l0-306c0-3 2-6 6-7l229-93c2 0 2 0 3 0 2 0 2 0 3 0l226 87c3 1 6 4 6 7l0 303c0 3-2 6-5 8z m-4-16l201-93-92-35-197 92z m0-169l-207 83 98 41 196-92z m-220 70l210-85 2-289-212 87z m229-374l-2 288 211 78 0-286z m131 215l-17 41c-2 3-3 5-6 5-3 0-5-2-6-5l-15-59-45-16c-3-2-5-3-5-6 0-3 2-5 3-6l33-14-12-53c0-3 0-6 3-7 2 0 2 0 3 0 2 0 3 1 5 1l36 44 38-15c0 0 1 0 3 0 3 0 6 3 6 6 0 2 0 3-2 3l-15 47 36 39c2 1 2 4 0 7-1 3-4 3-7 3z"/>
<glyph unicode="&#105;" d="M63 164c32 0 57 26 57 57l0 71c0 24-15 45-37 54 7 38 37 134 175 134 135 0 170-94 177-134-22-7-39-28-39-54l0-71c0-25 17-48 41-54-3-21-17-74-68-104-8 11-18 17-32 17l-66 0c-21 0-39-18-39-39 0-21 18-39 39-39l66 0c18 0 33 12 38 30 75 39 90 111 93 135 24 6 42 29 42 56l0 71c0 27-18 49-43 55-8 43-47 163-209 163-162 0-198-119-205-163-26-4-47-28-47-55l0-71c0-33 26-59 57-59z m276-132l-68 0c-4 0-7 3-7 7 0 5 3 8 7 8l66 0c5 0 8-3 8-8 0-4-2-7-6-7z m141 260l0-71c0-13-12-25-25-25-14 0-26 12-26 25l0 71c0 14 12 26 26 26 13 1 25-11 25-26z m-442 0c0 14 12 26 25 26 14 0 26-12 26-26l0-71c0-13-12-25-26-25-13 0-25 12-25 25z"/>
<glyph unicode="&#106;" d="M512 376l-44 41-212-233-212 233-44-39 256-283z"/>
<glyph unicode="&#107;" d="M277 221l0 140-44 0 0-140-60 52-31-26 114-98 114 98-31 26z m-21 291c-142 0-256-114-256-256 0-142 114-256 256-256 142 0 256 114 256 256 0 142-114 256-256 256z m0-480c-123 0-224 101-224 224 0 123 101 224 224 224 123 0 224-101 224-224-1-123-101-224-224-224z"/>
<glyph unicode="&#108;" d="M286 0l0 226 226 0 0 60-226 0 0 226-60 0 0-226-226 0 0-60 226 0 0-226z"/>
<glyph unicode="&#109;" d="M315 0c0 0 0 142 0 256l72 0 9 90-81 0 0 53c0 20 13 24 22 24 9 0 58 0 58 0l0 89-79 0c-87 0-107-65-107-107l0-59-51 0 0-90 51 0c0-116 0-256 0-256z"/>
<glyph unicode="&#110;" d="M206 125c-6 0-10-5-10-11l0-105c0-6 4-11 10-11l106 0c6 0 10 5 10 11l0 105c0 6-4 11-10 11z m97-105l-86 0 0 85 86 0z m-177 435c-42-51-34-118-34-121 0-4 4-9 10-9l104 0c3 0 6 2 8 3 1 2 3 5 3 8-3 34 15 50 15 50 10 6 19 10 27 10 20 0 29-18 32-23 9-31-20-49-20-49-86-48-74-149-72-149 0-5 4-9 10-9l92 0c6 0 11 4 11 10 0 2 0 2 0 3-2 39 16 53 16 53 97 65 92 128 92 131 2 143-162 149-166 149-55-3-99-23-128-57z m275-92c0 0 3-54-83-113-2 0-26-17-26-62l-77 0c0 23 3 88 64 121 15 9 39 36 28 75 0 2-15 35-49 35-13 0-26-5-40-14-1-3-21-21-22-59l-85 0c0 18 2 62 31 97 24 30 63 46 114 49 6 0 146-6 145-129z"/>
<glyph unicode="&#111;" d="M256 23l53 34c66 42 117 76 162 137 46 62 53 145 21 210-27 54-76 84-135 84l-2 0c-43 0-76-35-99-53-23 18-56 53-99 53-61 0-110-30-137-84-34-64-25-148 21-210 45-61 98-95 162-137z"/>
<glyph unicode="&#112;" d="M355 488c-45 0-78-18-99-36-23 18-56 36-99 36-61 0-110-30-137-84-34-65-25-148 21-210 45-61 98-95 162-137l53-34 53 34c66 42 117 76 162 137 46 62 53 146 21 210-27 54-76 84-137 84z m67-256c-38-53-85-81-146-122l-20-12-18 12c-63 41-108 69-148 122-31 42-37 101-15 144 17 32 45 50 82 50 55 0 81-47 82-48l17-30 17 30c1 1 27 48 82 48 37 0 65-18 82-50 22-43 16-102-15-144z"/>
<glyph unicode="&#113;" d="M461 251l-154 130-6 86c-1 15-13 43-42 45 0 0-1 0-1 0-2 0-2 0-2 0-29-2-41-30-42-45l-6-86-155-130c-2-1-3-4-3-6l0-52c0-3 1-6 4-8 3-1 6-1 8-1l158 66-2-175-42-36c-1-1-3-4-3-6l0-27c0-3 2-6 5-8 1-1 3-1 4-1 2 0 2 0 3 0l53 21c7-3 16-3 18-3 0 0 2 0 2 0 0 0 0 0 1 0 2 0 11 0 20 6l52-21c2 0 2 0 3 0 2 0 3 0 5 2 3 1 4 4 4 7l0 27c0 3-1 5-3 6l-42 36-1 175 155-68c3-1 6-1 7 2 3 1 5 4 5 7l0 53c0 1 0 3-3 4z m-14-45l-158 67c-3 1-6 1-7-2-3-1-5-4-5-7l2-192c0-3 1-4 3-6l42-36 0-9-45 18c-3 2-8 0-9-1-5-5-12-6-12-6 0 0-8 0-13 6-3 3-6 3-9 1l-45-18 0 9 42 36c2 2 3 5 3 6l2 192c0 3-2 6-5 7-3 2-6 2-7 2l-158-67 0 35 153 129c2 2 3 3 3 6l6 89c0 0 5 29 26 30 23-1 26-28 26-28l7-91c0-3 2-4 3-6l155-129z"/>
<glyph unicode="&#114;" d="M378 349l117 56c3 2 5 5 5 8 0 3-2 6-5 7l-122 53c-3 1-6 1-7 0-3-3-5-5-5-8l0-393c-33-1-64-13-64-36 0-22 37-36 72-36 35 0 72 12 72 36 0 21-31 33-63 35l0 278c0-1 0-1 0 0z m0 103l95-41-95-45z m-65-416c0 8 20 17 48 18l0-37c-28 1-48 12-48 19z m112 0c0-7-18-16-47-18l0 38c29-3 47-14 47-20z m-267 238c-18 0-33-15-33-33l0-155c0-18 15-33 33-33 18 0 33 15 33 33l0 155c0 18-15 33-33 33z m17-188c0-9-8-17-17-17-9 0-16 8-16 17l0 155c0 9 7 17 16 17 9 0 17-8 17-17z m-149 293c13-9 33-7 60 2l22-59-33-4c-4 0-6-5-6-8l0-43c-1 0-1 0-3 0-3-2-31-19-30-86 0-8-3-79 32-92 0 0 1 0 1 0l0-66c0-5 3-8 8-8l147 0c5 0 8 3 8 8l0 22 15 0c4 0 7 3 7 8l0 128c0 1-1 4-3 6-1 1-4 3-6 1l-13 0 0 151c0 3-2 4-3 6-2 1-5 1-6 1l-35-6 0 137c0 3-1 6-4 8l-70 27c-3 0-6 0-7-2-3-1-5-4-5-6l0-45c0-4 3-7 8-7l60 0 0-116-47-9-39 101c-1 3-3 4-6 6-4 0-42 6-58-9-5-5-9-12-8-24 0-2 2-14 14-22z m93 88l0 25 53-19 0-6z m-68-288c-1 41 11 59 17 66l0-140c-14 11-18 50-17 74z m167-7c2-2 5-2 6-2l14 0 0-111-15 0c-5 0-8-3-8-8l0-22-131 0 0 274 131 24 0-149c0-3 2-5 3-6z m-186 241c4 4 15 6 25 6 5 0 9 0 14-2l9-21c-27-9-39-6-45-3-6 3-6 9-6 9-2 6 1 9 3 11z"/>
<glyph unicode="&#115;" d="M276 208c-9 13-23 24-37 34-9 8-18 16-25 26-3 3-5 6-3 11 1 7 7 12 13 16 12 9 23 20 32 32 12 18 20 37 18 59-1 21-6 40-20 58-1 3-1 3 2 3 3 0 8 0 11 2 10 7 21 15 31 22 5 3 5 8 3 12-1 5-4 8-10 8-2 0-2 0-3 0-44 0-88 0-131 0-27 0-52-6-74-21-35-23-57-54-53-101 3-26 14-47 32-63 19-20 45-29 72-32 5 0 5-1 5-4-2-11-2-22 4-31 2-4 0-4-3-4-20 0-38-3-57-11-29-12-53-28-69-55-16-24-20-49-6-76 9-16 22-28 39-36 31-16 64-22 101-22 9 0 16 0 25 1 30 3 59 14 83 32 50 39 44 105 20 140z m-165 141c-12 23-16 46-9 71 3 9 9 18 18 24 13 9 25 8 38 3 21-9 33-27 41-48 4-10 6-21 6-30 0-20-3-35-15-48-11-12-26-15-39-9-18 7-31 21-40 37z m101-257c-12-8-27-11-40-12-6 0-14-2-18-2-23 0-41 5-58 17-28 19-37 60 2 86 25 16 56 22 84 13 20-6 38-19 48-37 14-20 3-52-18-65z m167 274c0-21 0-42 0-63 0-8 0-8-7-8-21 0-44 0-65 0-9 0-13-3-13-12 0-6 0-12 0-18 0-9 4-12 13-12 21 0 42 0 65 0 9 0 9 0 9-9 0-21 0-42 0-63 0-11 5-15 15-15 5 0 11 0 15 0 12 0 15 3 15 15 0 21 0 43 0 64 0 6 2 8 8 8 10 0 22 0 33 0 12 0 22 0 34 0 9 0 13 5 14 12 0 6 0 12 0 17 0 10-5 15-15 15-23 0-44 0-66 0-6 0-8 1-8 7 0 21 0 44 0 65 0 10-4 15-15 15-4 0-9 0-13 0-14-2-19-6-19-18z"/>
<glyph unicode="&#116;" d="M453 191c0 2-1 3-3 3 0 0-48 26-45 65 12 3 50 11 80-29 1-1 3-3 4-3 2 0 3 2 5 3l16 28c2 1 2 4 0 7 0 0-45 51-117 27-7 8-35 27-93 17-2 3-3 4-3 7 24 20 36 36 33 53-3 18-21 26-23 26l-66 16c-2 0-3 0-5-1l-1-2c4 6 6 12 6 20 0 18-15 33-33 33-12 0-23-8-29-17l-27 5c-3 0-6-2-7-5 1-4 4-7 7-7l26-5c0-1-2-3-2-4 0-18 15-33 33-33 3 0 6 1 9 1l-81-60-35 18-12 47c0 3-3 4-6 4-3 0-4-1-6-4l-12-43-58-51c-2-1-11-12-6-22 3-8 10-12 22-12 2 0 2 0 3 0l36 16c5-3 12-6 26-3 13-19 42-62 47-84l-58-39c-3-3-9-9-7-17 1-7 7-13 19-20l-43-46c-2-2-2-3-2-5 0-1 2-3 3-4l23-11c1 0 1 0 3 0 1 0 3 0 4 2l53 54 27-5 21-10c2-2 5 0 6 0 2 1 3 3 2 6l-3 21c0 2-2 3-3 5l-20 10 24 26c15 0 85-2 125 36l24 0c8-8 33-32 52-36l22-83 0-18c0-2 0-3 2-5 1-1 3-1 4-1l21 0c2 0 3 1 5 1 1 2 1 3 1 5l-13 78c15-7 43-27 63-71 1-1 3-3 4-3 2 0 5 0 5 2l10 13c2 2 2 5 0 8-1 1-48 60-57 96z m-244 258c9 0 17-6 20-15l-36 6c4 6 9 9 16 9z m-21-21c0 1 0 1 0 3l41-9c-3-9-11-15-20-15-12 0-21 9-21 21z m54-29l64-15c0 0 13-6 15-17 1-7-3-22-32-43-1-2-3-3-3-5 0-1 0-27 38-37 4-2 10-5 13-8 0 0 0-1 0-1 0 0 0-2 0-2 0 0 0-1-1-3-3-1-12-6-42 2-24 6-44 15-47 19l26 51c1 2 1 3 0 5-2 1-3 3-5 3 0 0-32 6-45 13-2 2-3 2-6 0l-62-34-1 1c0 0-2 2-2 2l-3 1z m-54-108l-25 27 55 31c11-4 29-9 38-10l-20-39z m306-202c-30 57-74 72-75 72-2 0-5 0-6-1-2-2-2-3-2-6l15-82-9 0 0 14c0 0 0 1 0 1l-22 88c0 1-3 4-5 4-14 2-41 27-51 36-2 2-3 2-5 2l-28 0c-2 0-3 0-5-2-40-39-119-34-120-34-2 0-3 0-5-2l-31-33c-2-1-2-3-2-4 0-2 2-3 3-5l24-12 2-8-12 6c0 0-2 0-2 0l-32 5c-1 0-3 0-4-2l-51-52-11 4 45 47c2 1 2 3 2 6 0 2-2 3-3 5-18 6-21 12-21 13 0 2 3 5 3 5l60 40c2 2 3 3 3 6-3 30-50 95-53 97-1 1-4 3-6 1-15-4-21 0-21 0-3 3-6 5-7 3l-38-16c-6 1-10 3-12 4-1 3 2 8 5 11l60 51c1 0 1 1 1 3l8 24 7-29c0-1 2-3 3-3l50-27 36-39c2-1 3-1 5-1l46 7c5-15 40-25 56-28 12-4 23-5 32-5 9 0 16 1 21 6 4 5 4 9 4 12 0 3 0 6-1 9-5 9-20 12-20 12-6 2-10 5-15 8 57 7 77-17 77-17 2-1 5-3 6-1 57 21 95-9 105-20l-9-17c-39 46-90 25-90 25-1-2-3-3-3-5-6-44 38-72 48-78 11-33 45-80 54-94z"/>
<glyph unicode="&#117;" d="M506 143c-3 0-6-3-6-6l0-27-18 33c0 2-2 2-2 2l-33 22-183 130 0 40 60 24c3 2 4 3 4 6 0 3-1 5-3 6l-63 28c-1 1-4 0-6 0-2-2-3-3-3-5l0-96-182-130c0 0-2 0-2-1l-31-23c0 0-2-1-2-1l-24-38 0 30c0 3-3 6-6 6-3 0-6-3-6-6l0-51c0-2 0-2 2-2 0 0 0-1 1-1 2 0 2-2 3-2 2 0 3 2 5 3l34 53 23 17 0-67c0-3 3-6 6-6l370 0c3 0 6 3 6 6l0 67 23-17 27-53c0 0 1 0 1-1 0-2 2-2 3-2 0 0 2-1 2-1 0 0 0 0 1 0 0 0 2 0 2 0 1 1 3 3 3 4l0 52c0 6-3 7-6 7z m-241 244l42-18-42-17z m-185-226l171 122-33-190-138 0z m179 95l29-164-58 0z m179-164l-138 0-33 191 171-122z"/>
<glyph unicode="&#118;" d="M507 304c3 3 5 8 3 11-1 4-4 7-9 7l-173 14-63 158c0 1-1 1-3 3-1 1-1 1-3 3-1 0-3 0-5 0-1 0-3 0-4 0-2 0-2-2-3-3-2-2-2-2-3-3l-63-158-172-14c-4 0-7-3-9-7-2-5 0-9 3-11l133-108-41-164c-2-5 0-9 4-11 2-1 5-1 6-1 2 0 5 0 6 1l145 90 145-90c1-1 3-1 6-1 1 0 4 0 6 1 3 3 4 8 4 11l-42 162z m-117-251l-126 78c-3 2-6 2-10 2-3 1-6 0-9-2l-126-78 36 144c2 5 0 8-3 11l-117 96 155 12c4 0 7 3 9 6l57 139 56-140c1-3 4-6 9-6l155-12-118-97c-3-3-4-6-3-10z"/>
<glyph unicode="&#119;" d="M382 364c0 20-12 37-28 44l0 3c0 23-15 41-35 47l0 4c0 27-21 50-48 50l-51 0c-27 0-50-23-50-50l0-4c-19-6-34-24-34-47l0-3c-17-7-29-24-29-44l0-347-42 0c-5 0-8-3-8-8-1-6 3-9 8-9l360 0c4 0 7 3 7 8 0 4-3 7-7 7l-43 0z m-162 131l51 0c18 0 32-13 33-31l-117 0c0 18 15 31 33 31z m-36-51l122 0c18 0 31-13 33-31l-187 0c0 18 15 31 32 31z m-61-99l38 0 0-51-38 0z m0-66l38 0 0-50-38 0z m0-67l38 0 0-49-38 0z m0-67l38 0 0-50-38 0z m89-128l-89 0 0 61 89 0z m0 78l-33 0 0 50 33 0z m0 66l-33 0 0 50 33 0z m0 68l-33 0 0 50 33 0z m0 66l-33 0 0 51 33 0z m50-278l-33 0 0 61 33 0z m0 78l-33 0 0 50 33 0z m0 66l-33 0 0 50 33 0z m0 68l-33 0 0 50 33 0z m0 66l-33 0 0 51 33 0z m104-278l-89 0 0 61 89 0z m-54 262l0-50-33 0 0 50z m-33 16l0 51 33 0 0-51z m33-83l0-49-33 0 0 49z m0-67l0-50-33 0 0 50z m54-50l-38 0 0 50 38 0z m0 66l-38 0 0 50 38 0z m0 68l-38 0 0 50 38 0z m0 66l-38 0 0 51 38 0z m0 66l-243 0 0 3c0 18 16 34 34 34l177 0c18 0 33-16 33-34l0-3z"/>
<glyph unicode="&#120;" d="M512 140l0 232c0 77-63 140-140 140l-232 0c-77 0-140-63-140-140l0-232c0-77 63-140 140-140l232 0c77 0 140 63 140 140z m-164 258c0 19 15 34 34 34l11 0c20 0 35-16 35-34l0-11c0-20-15-35-35-35l-11 0c-19 0-34 17-34 35z m-90-67c48 0 87-39 87-87 0-48-39-87-87-87-49 0-88 39-88 87 2 48 41 87 88 87z m-213-191l0 151 91 0c-6-15-10-30-10-47 0-72 59-133 133-133 72 0 133 59 133 133 0 17-3 32-10 47l85 0 0-151c0-53-42-95-95-95l-232 0c-53 0-95 42-95 95z"/>
<glyph unicode="&#121;" d="M419 44l-234 212 234 212-41 44-283-256 283-256z"/>
<glyph unicode="&#122;" d="M512 361c0 2 0 2 0 2l-236-167c-6-5-14-8-20-8-8 0-14 3-20 8l-236 167c0 0 0-2 0-2 0-1 0-1 0-3l0-263c0-15 12-29 27-32l459 0c15 5 28 17 28 32l0 262c-2 1-2 3-2 4z m-5 52l-504 0 253-172z"/>
<glyph unicode="&#65;" d="M0 456l512 0 0-52-512 0z m0-174l512 0 0-53-512 0z m0-175l512 0 0-53-512 0z"/>
<glyph unicode="&#66;" d="M318 313l-62 187-60-187-196 0 158-116-60-186 158 115 158-114-60 187 158 116-194 0z m46-232l-108 79-108-79 40 127-108 78 134 0 42 128 41-126 134 0-109-79z"/>
<glyph unicode="&#67;" d="M318 152c13 33 30 60 45 84 19 32 36 61 44 92 0 2 0 2 0 3l0 2c0 1 1 4 1 6 0 3 2 4 2 7 0 2 0 3 0 5 0 4 0 9 0 12 0 83-67 149-149 149-80 0-148-66-148-149 0-5 0-9 0-12 0-2 0-3 0-5 0-3 0-4 1-7 0-2 0-3 2-5 0-1 0-1 0-3l0-1c7-33 24-60 44-94 15-24 31-51 45-84 9-19 16-42 25-68l21-76c2-5 5-8 10-8 4 0 7 3 9 8l21 76c10 26 19 49 27 68z m-56-105l-12 43c-8 26-17 50-26 71-15 33-31 62-46 86-18 32-35 57-42 87l0 2c0 0 0 1 0 1 0 2 0 3-2 5l0 1c0 2 0 5-1 6 0 2 0 3 0 3 0 3 0 8 0 11 0 71 58 129 129 129 71 0 130-58 130-129 0-3 0-6 0-11 0-1 0-1 0-3 0-1 0-4-2-6 0-1 0-3-1-4 0-2 0-2 0-3-7-29-23-56-41-88-15-24-32-52-47-85-9-20-18-44-25-71z m74 316c0 41-33 72-72 72-41 0-73-33-73-72 0-41 33-72 73-72 39 0 72 31 72 72z m-74-53c-29 0-53 24-53 53 0 29 24 53 53 53 30 0 54-24 54-53 0-29-24-53-54-53z"/>
<glyph unicode="&#68;" d="M2 283c-8-68 12-134 55-188 42-53 104-87 172-93 9-2 18-2 27-2 130 0 241 98 254 229 16 140-87 266-227 281-68 8-134-12-188-55-53-42-86-104-93-172z m114 148c41 31 89 49 140 49 8 0 17 0 24-1 124-14 212-124 199-247-14-124-124-212-247-199-59 6-113 36-151 83-37 47-54 105-48 164 6 59 36 113 83 151z m72-59l0-232 202 116z"/>
<glyph unicode="&#69;" d="M24 297l-19 0 0-43-5 0 0-4 5 0 0-32 6 0 0 32 12 0c3 0 6 1 6 4l0 38c1 2-2 5-5 5z m0-44l-12 0 0 38 12 0z m53 24l-18 0 0-62 6 0 0 29 4 0 8-5 0-24 6 0 0 23c0 3-2 4-3 6l-5 3 5 3c1 1 3 3 3 6l0 17c0 3-2 4-6 4z m0-23l-8-4-4 0 0 23 12 0z m42 23l6 0 0-62-6 0z m47-62l6 0 0 58 7 0 0-58 6 0 0 56c0 3-3 6-6 6l-21 0c-3 0-6-1-6-6l0-56 6 0 0 58 8 0z m51 6c0-3 3-6 6-6l18 0 0 5-17 0 0 24 21 0 0 4-21 0 0 23 17 0 0 5-17 0c-3 0-6-2-6-6l0-23-4 0 0-5 4 0 0-21z m59-6l13 0c3 0 6 2 6 6l0 33c0 4-3 7-6 7l-12 0 0 30 12 0 0-18 6 0 0 16c0 3-3 6-6 6l-13 0c-3 0-6-1-6-6l0-30c0-3 3-5 6-5l12 0 0-34-12 0 0 22-6 0 0-22c-2-2 1-5 6-5z m120 62l-12 0c-3 0-6-1-6-6l0-51c0-3 3-6 6-6l12 0c3 0 6 1 6 6l0 51c2 5-1 6-6 6z m0-56l-12 0 0 52 12 0z m59 56l-20 0 0-62 6 0 0 29 5 0 7-5 0-24 6 0 0 23c0 3-1 4-3 6l-4 3 4 3c2 1 3 3 3 6l0 17c2 3-1 4-4 4z m-2-23l-7-4-5 0 0 23 12 0z m53 23l-15 0c-3 0-6-1-6-6l10 0 0-56 6 0 0 56 11 0c0 5-3 6-6 6z m-175-36l12 0c3 0 6 1 6 4l0 26c0 3-3 6-6 6l-19 0 0-62 7 0z m0 32l12 0 0-26-12 0z"/>
<glyph unicode="&#70;" d="M226 63l63 0 0-63-63 0z m-56 306c0 13 2 32 11 48 9 15 25 32 77 32 33 0 57-6 70-20 11-9 15-21 15-37 0-46-18-62-43-86l-6-5c-33-31-70-72-70-146l0-47 64 0 0 47c0 53 19 71 46 98l2 1c28 28 69 67 69 138 0 33-13 63-36 84-24 24-63 36-111 36-61 0-107-23-132-63-19-32-19-67-19-80l0-17 63 0z"/>
<glyph unicode="&#71;" d="M134 0l283 256-283 256-39-44 233-212-235-212z"/>
<glyph unicode="&#72;" d="M211 99c7-1 15-1 22-1 35 0 70 9 100 25l105-125 38 32-103 122c38 35 61 80 67 130 6 54-11 108-45 152-35 43-85 69-139 75-56 8-108-8-152-42-44-35-69-85-75-139-6-54 10-108 45-152 33-43 83-71 137-77z m-134 223c4 42 25 80 57 106 29 22 63 34 99 34 6 0 12 0 17-1 87-9 149-88 140-175-4-42-26-80-57-105-33-27-74-39-116-35-42 5-80 26-106 57-27 36-39 77-34 119z"/>
<glyph unicode="&#73;" d="M229 3c1-1 4-3 7-3 3 0 5 2 8 3l232 229c1 1 3 4 3 7l-5 222 33 34c3 5 3 11 0 14-4 3-10 3-13 0l-33-35-220 2c-3 0-5-2-8-3l-228-231c-5-4-5-10 0-13z m16 453l211-1 3-213-223-218-210 212z m175-57c0-11-9-20-19-20-11 0-20 9-20 20 0 11 9 20 20 20 10 0 19-9 19-20z m-182-248c7 0 21 1 33 10 12 9 20 23 23 42 0 3 1 33-41 80-3 5-12 23 9 38 0 0 12 7 26 1 16-6 30-28 39-63 1-5 6-9 12-8 4 2 9 8 7 13-6 19-12 36-21 49l15 15c5 3 5 11 0 14-3 4-10 4-13 0l-15-14c-6 5-12 9-18 12-23 9-44-3-44-4-32-23-23-53-14-66 37-41 37-65 37-65-2-14-6-23-14-29-8-6-17-6-21-6-2 0-3 0-3 0-62 17-66 78-66 81 0 7-5 10-11 10-6 0-9-5-9-11 0 0 3-35 27-63l-15-17c-3-4-3-10 0-13 2-2 5-3 8-3 3 0 4 1 7 3l15 15c11-9 24-17 41-21-2 0 1 0 6 0z"/>
<glyph unicode="&#74;" d="M339 184l4-85 169 166-169 161 0-74c-215 0-343-304-343-304 173 173 339 136 339 136z"/>
<glyph unicode="&#75;" d="M24 264c29-19 57-38 87-55 15-9 19-16 12-33-13-37-25-75-39-111-7-20-4-38 14-50 16-10 32-4 45 5 32 24 63 46 95 72 13 10 24 10 38 0 31-24 63-48 94-72 17-12 34-15 50-3 17 12 17 28 9 46-13 38-25 77-39 115-6 15-1 22 12 31 30 18 59 38 89 56 18 11 27 24 23 44-7 21-22 27-43 27-37 0-75 0-111 0-17 0-24 6-29 21-10 38-22 75-34 113-6 19-15 36-39 34-23-1-32-16-38-36-12-37-24-75-35-113-4-15-12-21-27-21-19 0-39 0-59 0-18 0-36 0-54 0-19 0-36-3-42-24-8-22 5-36 21-46z"/>
<glyph unicode="&#76;" d="M27 53l122 0c12 0 23 9 27 19 3 0 5-1 8-4 10-11 25-17 40-17l168 0c28 0 52 11 67 32 9 12 15 27 17 42 9 8 15 17 19 27 5 14 6 27 5 42 9 14 14 29 12 47 0 6-2 12-5 18 7 12 7 24 7 30 0 53-40 63-71 63l-77 0c13 86-29 112-42 118-8 3-15 4-23 4-19 0-39-10-50-27-3-4-4-9-4-15l0-48c0-2-2-5-2-6-9-26-27-48-54-71-3-3-6-6-9-9-1-1-3-3-4-3-5 9-14 17-26 17l-125 0c-15 0-27-12-27-27l0-205c0-14 12-27 27-27z m149 206c12 3 23 9 29 18 1 2 3 3 4 5 33 25 55 54 67 85 1 6 4 12 4 19l0 45c6 9 18 12 29 7 18-7 33-37 18-99l-5-21 119 0c24 0 36-5 36-29 0-3 0-7-1-12l-109 0c-7 0-13-6-13-13 0-8 6-14 13-14l104 0c3-3 5-8 5-12 1-8-2-15-5-21l-104 0c-7 0-13-6-13-14 0-7 6-13 13-13l97 0c1-8 1-17-2-24-1-5-3-8-6-11l-89 0c-7 0-13-6-13-13 0-8 6-14 13-14l74 0c0-9-3-18-9-26-9-12-22-18-39-18l-169 0c-7 0-12 2-16 6-9 8-20 14-32 14z"/>
<glyph unicode="&#77;" d="M68 188c36 0 65 30 65 66 0 38-29 68-65 68-38 0-66-30-66-68 0-36 30-66 66-66z m376 0c36 0 68 30 68 66 0 38-29 68-66 68-38 0-67-28-67-66 0-38 29-68 65-68z m-188 2c38 0 66 28 66 68 0 37-28 66-66 66-36 0-66-30-66-68 0-38 30-68 66-66z"/>
<glyph unicode="&#78;" d="M370 321c-25 6-51 4-76 4-30 0-30 0-30 29 0 19 0 38 0 57 0 18-3 35-22 44-18 9-31-2-43-12-50-38-100-76-151-113-12-9-25-18-36-29-20-18-18-37 3-54 9-8 18-14 27-21 54-41 109-81 163-122 12-9 25-12 39-6 15 6 18 19 20 33 0 12 0 26 0 38 1 63-10 54 55 55 59 0 88-25 94-84 3-29 22-47 51-45 30 1 45 19 45 57 1 78-59 151-139 169z"/>
<glyph unicode="&#79;" d="M45 254c14 2 18-4 18-18 0-31 0-61 0-93 0-27 17-44 44-44 24 0 48 0 72 0 24 0 48 0 72 0 13 0 25 5 32 14 9 10 15 23 9 38-7 16-21 25-39 27-24 1-50 0-74 0-43 0-39-5-39 39 0 36 0 36 36 39 24 2 35 21 21 41-22 31-46 64-72 96-15 20-33 18-48-1-14-19-27-38-42-56-11-14-21-26-30-41-14-21-3-41 21-41 7-1 13-1 19 0z m211 77c33 0 66 0 99 0 12 0 18-4 17-16 0-14 0-29 0-42 0-14-5-20-18-20-3 0-8 0-11 0-13 0-25-5-33-17-6-12 2-22 8-33 21-28 42-57 63-86 20-25 36-27 56 0 19 26 39 53 58 79 9 12 20 24 12 40-7 17-24 15-39 15-15 0-21 5-19 20 0 6 0 14 0 20-2 25 3 52-2 78-3 26-16 36-40 38-25 0-50 0-74 0-24 0-50 0-74 0-8 0-14 0-21-3-15-8-23-26-20-41 5-18 18-32 38-32z"/>
<glyph unicode="&#80;" d="M416 0c49 0 90 41 90 90 0 50-41 91-90 91-23 0-44-9-61-24l-171 87c0 4 1 9 1 14 0 3 0 4 0 7l173 89c15-14 37-21 58-21 49 0 90 40 90 90 0 50-41 91-90 91-50 0-91-41-91-91 0-3 0-6 0-7l-173-89c-15 13-36 21-59 21-49 0-90-41-90-90 0-50 41-91 90-91 20 0 38 6 53 18l178-90c0-2 0-3 0-5 3-49 42-90 92-90z"/>
<glyph unicode="&#81;" d="M509 343c1 3 1 6 0 9-2 3-5 5-8 5-204 0-242 32-248 45-5 11 8 23 8 23 0 0 1 1 1 1 9 20 6 33 2 41-29 45-193 34-240 30l0 6c0 4-3 9-9 9-4 0-9-5-9-9l0-494c0-4 5-9 9-9 5 0 9 5 9 9l0 161c29 3 134 14 206-4 0-30-1-52-1-52 0-15 7-28 19-40 40-35 130-41 190-41 33 0 59 2 62 2 3 0 6 1 7 4 2 3 2 6 0 9l-79 157z m-485-155l0 291c80 7 205 9 223-21 1-2 4-8-3-20-5-4-18-21-11-40 0-26-1-139-3-214-73 16-174 9-206 4z m462-135c-43-2-179-6-224 34-9 8-14 17-14 27 0 2 3 192 5 264 33-24 111-36 233-38l-73-131c-2-3-2-6 0-9z"/>
<glyph unicode="&#82;" d="M318 313l-62 187-60-187-196 0 158-114-60-187 158 114 160-114-61 187 159 114z"/>
<glyph unicode="&#83;" d="M90 346l33-58c-3-2-9-6-12-14-4-13 0-30 12-50 14-22 49-87 52-107 3-12 10-43 9-58 0-2-2-11 6-18 6-6 13-9 25-9l112 0c1 0 3 0 4 0 5 0 11 1 15 4 6 5 9 14 9 24 0 17 3 66 11 83l65 105 3-1c1 0 1-2 3-2 1 0 1 0 3 0 1 0 3 2 4 5 9 26 35 35 35 35 0 0 1 0 1 1 17 12 29 42 30 42 7 12 8 23 5 32-3 6-6 9-11 12 0 3-1 6-3 9-4 6-10 9-15 11-3 7-10 13-16 16l6 17c9 15-2 30-9 36 0 0 0 0-2 0-4 3-9 3-13 3-15 0-24-17-24-17l-17-39c-10 0-19-4-25-10-16-16-16-41-16-43 0-28-15-57-15-57-1-3 0-7 3-9l8-4c-8-20-42-110-89-118-1 0-51-12-86 71l-12 33c0 0-7 15-21 20-6 1-12 1-18 0l-68 120c0 0 0 0 0 2 0 0-1 0-1 1-2 0-2 2-3 2-2 0-2 0-3 0 0 0-2 0-2 0 0 0 0 0-1 0 0 0-17-15-21-30 0-2-8-22-30-19-3 0-5-1-6-3-5-1-5-4-5-6l23-46c0-2 1-2 3-3 1 0 7-5 16-5 3 0 5 0 8 2 7 3 13 9 16 18 3 6 12 24 24 22z m291 11c0 0 0 21 11 32 4 4 12 7 19 6 3 0 6 1 8 4l18 44c0 0 4 9 10 9 2 0 3 0 6-2 2-1 9-9 5-18 0 0 0 0 0-1l-9-23c-2-3 0-7 3-9 7-3 15-9 15-12 0-3 1-8 6-8 1 0 9-1 10-6 0-1 2-1 0-4-1-3 2-8 5-9 0 0 4-2 6-6 1-5 0-11-5-20-3-7-13-28-24-36-4-1-25-12-37-34l-62 34c7 12 15 36 15 59z m-232-77c9-3 14-12 14-12l12-33c39-96 101-80 102-80 53 8 89 98 99 124l40-21-65-106c-12-24-12-87-12-90 0-5 0-11-5-14-3-3-9-1-9-1 0 0-1 0-1 0l-112 0c-7 0-12 1-15 4-1 3-1 6-1 6 4 20-8 60-9 65-5 26-51 107-53 110-12 19-12 32-11 38 2 6 7 7 8 7 0 0 0 0 2 0 6 5 12 6 16 3z m-95 48c-1-6-4-9-7-10-5-2-9 0-11 1l-16 35c19 3 30 18 33 27 1 6 6 14 10 18l21-39c-19-5-30-30-30-32z m161-74c0-28 23-52 52-52 28 0 51 24 51 52 0 29-23 53-51 53-29 0-52-24-52-53z m89 0c0-21-16-39-37-39-22 0-38 18-38 39 0 22 16 40 38 40 21 0 37-18 37-40z"/>
<glyph unicode="&#84;" d="M476 295l-100 110 8 23c2 3 0 7-3 9l-151 75c-1 0-4 0-6 0-1 0-3-2-4-5l-170-356-11-11c-1-1-3-3-3-4 0-2 0-5 2-6l116-128c1-2 3-4 6-4 1 0 3 0 4 2l312 283c3 5 3 9 0 12z m-246 199l139-69-3-8-5 6c-1 2-3 3-4 3-2 0-5 0-6-1l-271-246z m192-240l-5 7c-3 3-7 3-10 0-3-3-3-8 0-11l4-6-251-226-106 116 252 227c0-1 0-3 1-4l8-8c1-1 3-3 6-3 1 0 3 0 4 2 3 3 3 7 0 10l-7 8c-2 1-3 1-5 1l42 40 106-116z m-86 83c-3-3-3-7 0-10l13-15c2-2 3-3 6-3 2 0 3 0 5 1 3 3 3 8 0 11l-14 15c-3 4-7 4-10 1z m48-64c2-2 3-3 6-3 2 0 3 0 5 1 3 3 3 8 0 11l-14 15c-3 3-8 3-11 0-3-3-3-8 0-11z m-163 167c-3 1-7 0-10-3-2-5 0-8 3-11l19-9c2 0 2 0 3 0 3 0 6 2 8 5 1 4 0 7-3 10z m59-27c-3 1-7 0-10-3-2-5 0-8 3-11l19-9c2 0 2 0 3 0 3 0 6 2 8 5 1 4 0 7-3 10z"/>
<glyph unicode="&#85;" d="M494 426l-26 0 0 11c-4 33-31 60-66 60l-295 0c-35 0-62-26-66-60l-2-11-22 0c-9 0-17-7-17-18l0-56c0-9 8-16 17-16l22 0 0-244c0-12 8-21 18-24l0-27c0-14 12-26 26-26l31 0c14 0 26 12 26 26l0 25 229 0 0-25c0-14 12-26 26-26l31 0c14 0 26 12 26 26l0 27c10 3 18 12 18 24l0 244 25 0c9 0 17 7 17 16l0 58c0 9-8 16-18 16z m-41-181l-191 0 0 181 190 0 0-181z m-397 112l0 69 189 0 0-181-189 0z m0-128l397 0 0-80-397 0z m51 251l294 0c24 0 43-16 49-37l-391 0c6 21 25 37 48 37z m-90-128l0 56 22 0 0-56z m106-311c0-5-4-9-9-9l-31 0c-5 0-9 4-9 9l0 25 49 0z m303-9l-31 0c-5 0-9 4-9 9l0 25 49 0 0-25c0-6-4-9-9-9z m18 51l-379 0c-5 0-9 4-9 9l0 41 397 0 0-41c0-5-4-9-9-9z m50 269l-26 0 0 58 26 0z"/>
<glyph unicode="&#86;" d="M0 72c50-31 102-48 161-48 38 0 72 6 106 18 31 11 58 26 84 47 25 22 45 45 59 69 16 26 28 51 37 81 9 26 12 53 12 85l0 13c20 14 36 32 53 55-23-10-42-14-60-17 24 14 39 33 46 59-21-12-43-21-67-26-21 23-45 33-77 33-30 0-54-10-75-30-21-21-31-45-31-74 0-7 2-16 3-25-42 3-82 13-121 33-37 18-68 44-95 77-9-17-14-33-14-55 0-19 5-36 12-49 9-15 20-27 35-36-17 0-33 4-48 12l0-2c0-25 7-47 24-68 16-19 36-30 60-34-9-3-18-5-27-5-3 0-11 0-21 3 7-21 19-39 37-52 18-14 40-22 62-22-39-30-83-45-131-45-4 0-13 2-24 3z"/>
<glyph unicode="&#87;" d="M256 334l212-235 44 41-256 283-256-283 44-39z"/>
<glyph unicode="&#88;" d="M274 343c-9 0-20 0-29-1-15-3-25-11-31-24-2-5-3-9-5-14-3-13-3-27-3-40 0-23-1-44 2-67 1-9 1-19 4-28 2-8 5-15 11-21 9-9 19-11 30-12 20-3 39-2 59-3 16 0 33 0 49 0 20 0 40 0 59 0 17 1 32 1 48 3 17 1 29 9 36 25 2 5 3 11 5 15 3 18 3 36 3 54 0 18 0 38-2 56-1 11-1 21-6 32-4 13-15 21-27 24-9 3-19 3-28 3-26 1-50 1-76 1-13 0-28 0-42 0-19-3-39-3-57-3z m157-92c3 22 27 32 43 19 6-5 8-9 9-17 2-11 2-20 2-30 0-3-3-3-5-3-9 0-18 0-27 0-6 0-6 0-6-6 0-5 0-11 0-15 0-2 0-5 2-6 1-3 4-6 9-6 3 0 6 3 7 6 2 3 0 6 0 9 0 3 2 4 5 4 3 0 7 0 10 0 2 0 3 0 3-3 0-9 0-18-7-25-9-9-18-11-30-8-11 3-17 11-18 21-2 9 0 20-2 29 5 12 3 21 5 31z m-68-33c0 8 0 15 0 23 0 21 0 42 0 62 0 6 0 6 6 6 12 0 12 0 12-12 0-9 0-18 0-27 0-2-2-3 1-5 2 0 2 2 4 2 4 4 9 7 16 7 6 0 11-3 12-7 3-6 5-14 5-22 0-16 0-31 0-48 0-4 0-9-2-13-3-12-12-17-22-11-3 2-6 5-9 6-2 2-4 2-4-1 0-2 0-2 0-3 0-3-1-3-3-3-3 0-6 0-9 0-4 0-4 1-4 4-3 15-3 29-3 42z m-86 71c-3 0-4-1-4-4 0-2 0-3 0-5 0-35 0-68 0-102 0-6 0-6-6-6-3 0-8 0-11 0-2 0-3 1-3 3 0 1 0 3 0 4 0 33 0 68 0 101 0 2 0 3 0 5 0 3-2 3-3 3-5 0-9 0-14 0-3 0-4 1-4 4 0 3 0 8 0 11 0 3 1 4 4 4 9 0 18 0 28 0 9 0 18 0 27 0 3 0 4-1 4-4 0-3 0-8 0-11 0-3-1-4-4-4-5 1-9 1-14 1z m65-16c3 0 4-2 4-5 0-15 0-30 0-45 0-15 0-30 0-45 0-3-1-6-4-5-3 0-6 0-9 0-5 0-5 2-5 5 0 1 0 1 0 3 0 1 0 1-1 1-2 0-2 0-2-1-3-3-6-6-9-8-9-4-19-3-21 11 0 4-1 7-1 12 0 24 0 48 0 72 0 6 0 6 6 6 3 0 6 0 7 0 3 0 5-1 5-4 0-9 0-19 0-28 0-15 0-31 0-46 0-3 0-6 3-8 3-1 6 0 7 2 3 3 6 6 6 12 0 22 0 45 0 66 0 6 0 6 6 6 2-1 5-1 8-1z m50-86c4 1 4 4 6 7 0 2 0 3 0 5 0 15 0 31 0 46 0 2 0 3 0 5-2 4-5 8-9 6-7 0-10-5-10-9 0-9 0-18 0-27 0-9 0-18 0-27 0-2 0-5 2-6 5 1 8-2 11 0z m66 48c1 0 3 0 4 0 3 0 5 1 5 3 0 4 0 9 0 12 0 4-3 8-9 8-5 0-8-4-9-8 0-2 0-5 0-6 0-11-2-9 9-9z m-413-62l0 56 24 81-21 0-13-56-14 56-21 0 24-83 0-54z m51-3c8 0 15 3 20 8 4 4 7 12 7 19l0 53c0 8-3 14-7 20-5 4-11 7-18 7-8 0-15-3-20-7-4-5-7-11-7-19l0-52c0-9 3-15 7-21 5-5 11-8 18-8z m-7 81c0 2 0 5 1 7 2 1 3 1 6 1 3 0 5 0 6-1 2-2 2-4 2-7l0-54c0-3 0-4-2-6-1-1-3-3-6-3-3 0-4 0-6 3-1 2-1 3-1 6z m101-78l0 101-18 0 0-77c-2-1-3-4-6-6-2-1-3-1-5-1-1 0-3 0-3 1-1 2-1 3-1 5l0 77-18 0 0-85c0-6 1-10 3-13 1-3 6-5 9-5 3 0 7 2 10 3 3 2 8 6 11 9l0-10 18 0z"/>
</font>
</defs>
</svg>
